<?xml version="1.0" standalone="no"?>
<!DOCTYPE svg PUBLIC "-//W3C//DTD SVG 20010904//EN"
 "http://www.w3.org/TR/2001/REC-SVG-20010904/DTD/svg10.dtd">
<svg version="1.0" xmlns="http://www.w3.org/2000/svg"
 width="314.000000pt" height="161.000000pt" viewBox="0 0 314.000000 161.000000"
 preserveAspectRatio="xMidYMid meet">

<g transform="translate(0.000000,161.000000) scale(0.100000,-0.100000)"
fill="#000000" stroke="none">
<path d="M660 1574 c-177 -52 -306 -130 -427 -258 -69 -74 -130 -159 -148
-208 -4 -9 29 18 72 59 94 91 142 124 236 168 247 113 522 75 731 -102 84 -71
103 -83 139 -83 l28 0 -17 32 c-9 17 -50 64 -90 104 -56 54 -99 85 -174 123
-127 66 -157 92 -171 147 -11 43 -12 44 -53 43 -22 0 -79 -11 -126 -25z"/>
<path d="M530 1319 c-67 -17 -275 -108 -267 -116 2 -2 30 6 63 18 271 94 493
73 685 -66 54 -39 65 -41 93 -20 11 8 29 15 40 15 36 1 -47 64 -148 114 -156
76 -314 95 -466 55z"/>
<path d="M93 1019 c-39 -11 -63 -43 -63 -84 0 -45 24 -72 100 -110 72 -36 95
-62 85 -95 -8 -24 -27 -29 -120 -32 -62 -3 -70 -5 -70 -23 0 -19 7 -20 92 -20
86 0 94 2 117 25 61 63 35 127 -74 185 -56 30 -76 46 -78 63 -7 50 3 52 254
52 l234 0 0 25 0 25 -222 -1 c-123 0 -237 -5 -255 -10z"/>
<path d="M590 840 c0 -183 1 -190 20 -190 19 0 20 7 20 190 0 183 -1 190 -20
190 -19 0 -20 -7 -20 -190z"/>
<path d="M964 1021 c-8 -8 -4 -39 6 -43 5 -1 86 -2 180 0 l170 3 0 25 0 25
-176 -2 c-96 -2 -177 -5 -180 -8z"/>
<path d="M967 944 c-4 -4 -7 -72 -7 -151 l0 -143 25 0 26 0 -3 147 c-3 124 -5
148 -18 151 -9 1 -19 0 -23 -4z"/>
<path d="M1520 880 c0 -40 4 -70 10 -70 6 0 10 30 10 70 0 40 -4 70 -10 70 -6
0 -10 -30 -10 -70z"/>
<path d="M1583 943 c-20 -7 -18 -133 2 -133 11 0 15 11 15 43 l0 42 26 -42
c39 -66 56 -58 52 25 -3 72 -20 87 -28 25 l-5 -38 -25 41 c-14 23 -31 39 -37
37z"/>
<path d="M1710 933 c0 -7 9 -13 20 -13 18 0 20 -7 20 -55 0 -30 5 -55 10 -55
6 0 10 25 10 55 0 48 2 55 20 55 11 0 20 6 20 13 0 8 -17 12 -50 12 -33 0 -50
-4 -50 -12z"/>
<path d="M1960 878 c0 -39 4 -68 10 -68 6 0 10 11 10 24 0 37 15 39 43 6 14
-16 30 -30 36 -30 15 0 14 11 -5 31 -14 16 -15 20 0 40 23 34 6 56 -49 61
l-45 3 0 -67z m80 27 c0 -10 -10 -15 -30 -15 -20 0 -30 5 -30 15 0 10 10 15
30 15 20 0 30 -5 30 -15z"/>
<path d="M2240 881 l0 -71 45 0 c25 0 45 5 45 10 0 6 -16 10 -35 10 l-35 0 0
54 c0 30 -4 58 -10 61 -6 4 -10 -20 -10 -64z"/>
<path d="M2359 945 c0 0 -1 -30 -2 -68 l-2 -67 48 0 c26 0 47 5 47 10 0 6 -16
10 -35 10 -29 0 -35 4 -35 21 0 17 5 20 32 17 19 -2 33 2 35 10 3 8 -7 12 -31
12 -25 0 -36 4 -36 15 0 10 11 15 35 15 21 0 35 5 35 13 0 8 -16 12 -45 12
-25 0 -45 0 -46 0z"/>
<path d="M2514 936 c-2 -6 -12 -36 -24 -66 -24 -66 -23 -60 -5 -60 8 0 15 7
15 15 0 10 10 15 30 15 18 0 33 -6 36 -15 4 -8 12 -15 20 -15 12 0 2 43 -30
121 -8 18 -36 21 -42 5z m35 -63 c1 -7 -6 -13 -14 -13 -16 0 -19 17 -8 46 6
16 7 16 14 -2 4 -10 8 -25 8 -31z"/>
<path d="M2706 943 c-3 -3 -6 -25 -6 -47 l0 -41 -26 43 c-38 63 -54 56 -54
-23 0 -53 3 -65 16 -65 13 0 15 8 12 35 -2 19 -1 35 3 35 4 0 16 -16 28 -35
33 -57 51 -47 51 29 0 60 -8 84 -24 69z"/>
<path d="M2760 880 c0 -40 4 -70 10 -70 6 0 10 30 10 70 0 40 -4 70 -10 70 -6
0 -10 -30 -10 -70z"/>
<path d="M2898 903 l-3 -48 -25 42 c-14 25 -33 43 -42 43 -15 0 -18 -10 -18
-65 0 -51 3 -65 15 -65 11 0 15 11 15 43 l0 42 26 -42 c38 -64 54 -57 54 21 0
76 -17 99 -22 29z"/>
<path d="M1830 875 l0 -65 50 0 c58 0 68 17 13 22 -49 4 -54 33 -5 33 19 0 32
5 32 12 0 8 -14 13 -35 13 -24 0 -35 5 -35 15 0 11 11 15 40 15 22 0 40 5 40
10 0 6 -22 10 -50 10 l-50 0 0 -65z"/>
<path d="M2106 918 c-47 -67 34 -148 88 -89 22 24 3 39 -20 17 -8 -9 -19 -16
-23 -16 -16 0 -31 26 -31 52 0 33 24 47 51 30 29 -19 41 -15 29 8 -15 29 -74
27 -94 -2z"/>
<path d="M2962 928 c-19 -19 -15 -82 6 -101 36 -33 102 -14 102 28 0 21 -5 25
-31 25 -20 0 -29 -4 -26 -12 2 -7 10 -12 17 -10 6 1 10 -3 8 -10 -7 -20 -34
-21 -52 -2 -35 34 3 92 44 66 30 -19 43 -16 30 8 -12 23 -78 28 -98 8z"/>
<path d="M310 821 c0 -106 8 -133 49 -157 28 -17 31 -23 31 -71 0 -50 1 -53
25 -53 24 0 25 3 25 53 0 51 2 55 38 78 l37 24 3 108 c3 102 2 107 -18 107
-18 0 -20 -6 -20 -84 0 -69 -4 -88 -21 -110 -25 -31 -59 -34 -85 -5 -15 16
-19 37 -20 93 -1 103 -2 106 -24 106 -19 0 -20 -7 -20 -89z"/>
<path d="M670 901 c0 -5 20 -60 44 -122 66 -173 87 -173 153 1 24 62 43 117
43 122 0 5 -10 8 -22 6 -19 -2 -29 -20 -57 -96 -19 -51 -37 -89 -41 -85 -4 4
-21 44 -39 88 -18 44 -38 83 -45 87 -15 11 -36 10 -36 -1z"/>
<path d="M1154 900 c-11 -4 -33 -22 -47 -40 -49 -57 -30 -160 35 -196 75 -42
198 14 198 91 0 25 -40 17 -50 -9 -11 -30 -47 -56 -78 -56 -37 0 -62 19 -78
57 -14 31 -13 38 3 71 20 41 56 59 97 48 38 -9 29 -26 -32 -59 -48 -26 -64
-48 -44 -61 4 -2 45 16 90 40 72 40 81 48 72 64 -28 52 -105 75 -166 50z"/>
<path d="M1480 740 c0 -20 7 -20 830 -20 823 0 830 0 830 20 0 20 -7 20 -830
20 -823 0 -830 0 -830 -20z"/>
<path d="M1642 654 c-31 -21 -31 -87 0 -108 29 -21 51 -20 71 2 21 23 21 32 2
32 -8 0 -15 -4 -15 -10 0 -19 -48 -11 -55 10 -15 47 30 81 63 48 20 -20 26 1
7 22 -22 24 -43 25 -73 4z"/>
<path d="M1779 652 c-44 -37 -16 -122 40 -122 35 0 61 29 61 70 0 62 -54 90
-101 52z m75 -34 c15 -25 -3 -52 -37 -56 -21 -3 -28 2 -33 22 -3 14 -3 33 0
42 8 20 55 15 70 -8z"/>
<path d="M1910 600 c0 -40 4 -70 10 -70 6 0 10 24 10 53 1 57 13 49 24 -15 10
-54 33 -49 42 7 3 25 11 42 16 39 5 -3 7 -13 4 -21 -8 -19 3 -63 15 -63 5 0 9
32 9 70 0 63 -2 70 -19 70 -15 0 -23 -12 -34 -47 l-14 -48 -13 48 c-9 35 -17
47 -31 47 -17 0 -19 -8 -19 -70z"/>
<path d="M2070 600 c0 -40 4 -70 10 -70 6 0 10 11 10 25 0 19 5 25 21 25 33 0
59 19 59 43 0 33 -19 47 -62 47 l-38 0 0 -70z m71 25 c0 -5 -12 -11 -26 -13
-18 -2 -25 1 -25 13 0 12 7 15 25 13 14 -2 26 -7 26 -13z"/>
<path d="M2215 653 c-34 -85 -43 -123 -29 -123 7 0 14 7 14 15 0 22 59 20 76
-2 25 -35 26 -3 2 59 -24 64 -49 84 -63 51z m35 -50 c0 -7 -7 -13 -16 -13 -11
0 -14 5 -10 16 3 9 6 21 6 27 0 16 20 -14 20 -30z"/>
<path d="M2324 656 c-10 -25 1 -119 14 -124 8 -2 12 10 12 40 l1 43 25 -42
c39 -65 54 -57 54 28 0 52 -3 70 -12 66 -7 -2 -13 -20 -13 -40 0 -21 -2 -37
-5 -37 -3 0 -15 18 -28 40 -23 41 -39 50 -48 26z"/>
<path d="M2474 626 c14 -25 26 -56 26 -70 0 -14 5 -26 10 -26 6 0 10 14 10 31
0 17 8 43 18 57 32 47 34 52 17 52 -8 0 -21 -11 -27 -25 -6 -14 -14 -25 -18
-25 -4 0 -13 11 -20 25 -7 14 -20 25 -28 25 -10 0 -7 -11 12 -44z"/>
<path d="M2640 600 l0 -70 45 0 c33 0 45 4 45 15 0 10 -11 15 -35 15 l-35 0 0
55 c0 30 -4 55 -10 55 -6 0 -10 -30 -10 -70z"/>
<path d="M2740 655 c0 -8 9 -15 20 -15 18 0 20 -7 20 -55 0 -30 5 -55 10 -55
6 0 10 25 10 55 0 48 2 55 20 55 11 0 20 7 20 15 0 11 -12 15 -50 15 -38 0
-50 -4 -50 -15z"/>
<path d="M2860 600 l0 -70 38 0 c48 0 72 24 72 72 0 44 -25 68 -73 68 l-37 0
0 -70z m85 20 c11 -35 -3 -60 -36 -60 -27 0 -29 2 -29 40 0 38 2 40 29 40 21
0 32 -6 36 -20z"/>
<path d="M14 577 c13 -62 79 -162 165 -247 70 -70 105 -96 187 -139 113 -58
153 -93 163 -143 l7 -33 60 1 c101 2 321 89 431 171 104 78 190 178 243 283
23 45 22 44 -67 -41 -155 -147 -310 -210 -518 -211 -264 -2 -459 107 -584 326
-25 43 -37 55 -62 58 -30 5 -31 4 -25 -25z"/>
</g>
</svg>
